<svg width="179" height="157" viewBox="0 0 179 157" fill="none" xmlns="http://www.w3.org/2000/svg">
<path fill-rule="evenodd" clip-rule="evenodd" d="M16.3247 97.0128C15.8462 86.0573 19.8517 74.7719 27.3686 65.0667C34.0042 56.4994 47.1323 53.7297 55.6046 46.298C66.0115 37.1693 68.375 20.9975 82.3368 16.8496C95.9177 12.8149 108.259 22.0603 120.236 27.0969C131.797 31.959 143.029 37.1066 150.79 45.6368C159.266 54.9538 168.634 65.5957 166.439 77.8804C164.261 90.078 150.121 98.7313 139.63 108.11C130.534 116.241 120.582 122.919 109.391 128.877C96.3084 135.842 83.6467 145.652 68.8223 145.808C53.5225 145.969 39.9075 138.741 30.192 129.711C20.8939 121.069 16.8536 109.124 16.3247 97.0128Z" fill="#E2E9F6"/>
<path d="M115.503 125.367C116.077 125.367 116.58 124.858 116.58 124.277C116.58 123.696 116.077 123.187 115.503 123.187L25.844 122.461C16.3685 122.461 8.61578 114.615 8.61578 105.026C8.61578 95.4374 16.3685 87.5919 25.844 87.5919L103.346 87.5919C103.92 87.5919 104.423 87.0834 104.423 86.5023C104.423 85.9211 103.92 85.4126 103.346 85.4126L25.844 85.4126C15.1482 85.4126 6.46225 94.2025 6.46225 105.026C6.46225 115.85 15.1482 124.64 25.844 124.64L115.503 125.367Z" fill="#00E1DC"/>
<path d="M114.962 129.413C118 129.413 120.462 126.95 120.462 123.913C120.462 120.875 118 118.413 114.962 118.413C111.925 118.413 109.462 120.875 109.462 123.913C109.462 126.95 111.925 129.413 114.962 129.413Z" fill="#9693F4"/>
<path d="M145.356 130.496C149.168 130.496 152.334 127.395 152.334 123.519C152.334 119.643 149.233 116.542 145.356 116.542C141.545 116.542 138.379 119.643 138.379 123.519C138.379 127.395 141.545 130.496 145.356 130.496ZM145.356 118.544C148.07 118.544 150.331 120.805 150.331 123.519C150.331 126.232 148.07 128.493 145.356 128.493C142.643 128.493 140.382 126.232 140.382 123.519C140.382 120.805 142.643 118.544 145.356 118.544Z" fill="#083AA2"/>
<path d="M145.356 130.69C141.415 130.69 138.25 127.46 138.25 123.584C138.25 119.707 141.48 116.477 145.356 116.477C149.232 116.477 152.463 119.707 152.463 123.584C152.463 127.46 149.297 130.69 145.356 130.69ZM145.356 116.735C141.609 116.735 138.573 119.772 138.573 123.519C138.573 127.266 141.609 130.303 145.356 130.303C149.103 130.303 152.14 127.266 152.14 123.519C152.14 119.772 149.168 116.735 145.356 116.735ZM145.356 128.687C142.513 128.687 140.188 126.362 140.188 123.519C140.188 120.676 142.513 118.351 145.356 118.351C148.199 118.351 150.525 120.676 150.525 123.519C150.525 126.362 148.199 128.687 145.356 128.687ZM145.356 118.738C142.707 118.738 140.511 120.87 140.511 123.584C140.511 126.297 142.643 128.429 145.356 128.429C148.005 128.429 150.202 126.297 150.202 123.584C150.202 120.87 148.07 118.738 145.356 118.738Z" fill="#083AA2"/>
<path d="M115.056 130.497C118.803 130.755 121.969 128.042 122.421 124.553H133.016L132.435 125.135C132.047 125.522 132.047 126.168 132.435 126.556C132.823 126.944 133.469 126.944 133.856 126.556L136.118 124.295C136.311 124.101 136.441 123.843 136.441 123.584C136.441 123.326 136.311 123.067 136.118 122.874L133.856 120.612C133.469 120.225 132.823 120.225 132.435 120.612C132.047 121 132.047 121.646 132.435 122.034L133.016 122.615H122.486C121.969 119.256 119.126 116.671 115.573 116.671C111.632 116.671 108.466 119.966 108.596 123.907C108.725 127.331 111.567 130.239 115.056 130.497ZM115.573 118.545C118.286 118.545 120.548 120.806 120.548 123.52C120.548 126.233 118.286 128.494 115.573 128.494C112.86 128.494 110.598 126.233 110.598 123.52C110.598 120.806 112.795 118.545 115.573 118.545Z" fill="#083AA2"/>
<path d="M115.573 130.69C115.379 130.69 115.25 130.69 115.056 130.69C111.503 130.432 108.596 127.46 108.466 123.842C108.402 121.904 109.113 120.03 110.469 118.609C111.826 117.188 113.635 116.413 115.638 116.413C119.126 116.413 122.098 118.997 122.68 122.356H132.758L132.435 122.033C132.241 121.839 132.112 121.516 132.112 121.193C132.112 120.87 132.241 120.612 132.435 120.354C132.887 119.901 133.598 119.901 134.05 120.354L136.311 122.615C136.505 122.809 136.634 123.132 136.634 123.455C136.634 123.778 136.505 124.036 136.311 124.294L134.05 126.556C133.598 127.008 132.887 127.008 132.435 126.556C132.241 126.362 132.112 126.039 132.112 125.716C132.112 125.393 132.241 125.134 132.435 124.876L132.758 124.553H122.615C122.034 128.106 118.997 130.69 115.573 130.69ZM115.056 130.303C118.609 130.561 121.775 127.977 122.292 124.488V124.359H133.469L132.629 125.199C132.5 125.328 132.37 125.587 132.37 125.78C132.37 125.974 132.435 126.233 132.629 126.362C132.952 126.685 133.469 126.685 133.792 126.362L136.053 124.101C136.182 123.971 136.311 123.713 136.311 123.519C136.311 123.325 136.247 123.067 136.053 122.938L133.792 120.677C133.469 120.354 132.952 120.354 132.629 120.677C132.5 120.806 132.37 121.064 132.37 121.258C132.37 121.452 132.435 121.71 132.629 121.839L133.469 122.679H122.292V122.55C121.84 119.191 118.933 116.736 115.573 116.736C113.699 116.736 111.955 117.511 110.663 118.803C109.371 120.16 108.725 121.904 108.789 123.778C108.919 127.202 111.697 130.109 115.056 130.303ZM115.573 128.688C112.73 128.688 110.405 126.362 110.405 123.519C110.405 120.677 112.73 118.351 115.573 118.351C118.416 118.351 120.741 120.677 120.741 123.519C120.741 126.362 118.416 128.688 115.573 128.688ZM115.573 118.738C112.924 118.738 110.728 120.87 110.728 123.584C110.728 126.297 112.86 128.429 115.573 128.429C118.222 128.429 120.418 126.297 120.418 123.584C120.418 120.87 118.222 118.738 115.573 118.738Z" fill="#083AA2"/>
<path d="M13.8221 97.132C16.7822 97.132 19.1818 94.7324 19.1818 91.7723C19.1818 88.8122 16.7822 86.4126 13.8221 86.4126C10.862 86.4126 8.4624 88.8122 8.4624 91.7723C8.4624 94.7324 10.862 97.132 13.8221 97.132Z" fill="#6661F6"/>
<path d="M128.859 45.2852C137.93 45.2852 145.284 37.9312 145.284 28.8596C145.284 19.7881 137.93 12.4341 128.859 12.4341C119.787 12.4341 112.433 19.7881 112.433 28.8596C112.433 37.9312 119.787 45.2852 128.859 45.2852Z" fill="#9693F4"/>
<path d="M103 32.501L65.9995 33.001L64.9995 58.001L53.4995 75.001V104.501H67.4995L124.5 104.001L126 101.501L127.5 45.501H126C115.2 46.301 112.166 37.1676 112 32.501H103Z" fill="white"/>
<path d="M119.253 52.2793C118.323 52.2793 117.57 53.0434 117.57 53.9856V61.6357H75.1589V47.3023H95.018C95.9475 47.3023 96.701 46.5382 96.701 45.596C96.701 44.6538 95.9475 43.8896 95.018 43.8896H73.4759C72.5464 43.8896 71.793 44.6538 71.793 45.596V63.342C71.793 64.2843 72.5464 65.0484 73.4759 65.0484H119.253C120.182 65.0484 120.936 64.2843 120.936 63.342V53.9856C120.936 53.0434 120.182 52.2793 119.253 52.2793Z" fill="#083AA2"/>
<path d="M119.909 79.3818H100.804C99.86 79.3818 99.0947 80.1459 99.0947 81.0882C99.0947 82.0304 99.86 82.7945 100.804 82.7945H119.909C120.853 82.7945 121.619 82.0304 121.619 81.0882C121.619 80.1459 120.853 79.3818 119.909 79.3818Z" fill="#083AA2"/>
<path d="M119.909 71.1914H100.804C99.86 71.1914 99.0947 71.9555 99.0947 72.8978C99.0947 73.84 99.86 74.6041 100.804 74.6041H119.909C120.853 74.6041 121.619 73.84 121.619 72.8978C121.619 71.9555 120.853 71.1914 119.909 71.1914Z" fill="#083AA2"/>
<path d="M119.909 88.2549H100.804C99.86 88.2549 99.0947 89.019 99.0947 89.9612C99.0947 90.9035 99.86 91.6676 100.804 91.6676H119.909C120.853 91.6676 121.619 90.9035 121.619 89.9612C121.619 89.019 120.853 88.2549 119.909 88.2549Z" fill="#083AA2"/>
<path d="M92.6074 70.5088H83.0549C82.1108 70.5088 81.3455 71.2729 81.3455 72.2151C81.3455 73.1574 82.1108 73.9215 83.0549 73.9215H90.8981V88.2548H73.5023C72.5582 88.2548 71.793 89.0189 71.793 89.9612C71.793 90.9034 72.5582 91.6675 73.5023 91.6675H92.6074C93.5515 91.6675 94.3168 90.9034 94.3168 89.9612V72.2151C94.3168 71.2729 93.5515 70.5088 92.6074 70.5088Z" fill="#083AA2"/>
<path d="M127.42 54.1279C126.478 54.1279 125.714 54.8755 125.714 55.7972V70.2046C125.714 71.1264 126.478 71.874 127.42 71.874C128.363 71.874 129.127 71.1264 129.127 70.2046V55.7972C129.127 54.8755 128.363 54.1279 127.42 54.1279Z" fill="#083AA2"/>
<path d="M126.773 82.7464C125.85 82.7464 125.102 83.4939 125.102 84.4157V100.993C125.102 101.913 124.352 102.662 123.43 102.662H68.6165C67.695 102.662 66.9453 101.913 66.9453 100.993V91.1266L77.0565 83.2749C78.8739 81.8639 79.7139 79.5884 79.2494 77.3366C78.9058 75.6709 77.8648 74.2249 76.3935 73.3691C74.9222 72.5137 73.1493 72.323 71.5298 72.8463L64.7598 75.0339C63.8816 75.3177 63.4001 76.2588 63.6841 77.136C63.9682 78.0132 64.9105 78.4942 65.7885 78.2105L72.5586 76.0228C73.2862 75.7878 74.0507 75.8699 74.7117 76.2543C75.3726 76.6387 75.8217 77.2624 75.9759 78.0105C76.1815 79.0074 75.8096 80.0146 75.0051 80.6394L64.2484 88.9922C63.8411 89.3083 63.603 89.7946 63.603 90.3099V100.993V101.516C63.603 101.651 63.6194 101.692 63.6496 101.666C63.98 104.11 66.0807 106.001 68.6165 106.001H123.43C126.195 106.001 128.444 103.754 128.444 100.993V84.4157C128.444 83.4939 127.696 82.7464 126.773 82.7464Z" fill="#083AA2"/>
<path d="M102.883 30.9214H68.7192C65.9534 30.9214 63.7033 33.1971 63.7033 35.9943V56.6807L52.2752 74.2227C52.0955 74.499 51.9995 74.8224 51.9995 75.1531V104.31C51.9995 105.244 52.7481 106.001 53.6715 106.001C54.5949 106.001 55.3435 105.244 55.3435 104.31V75.6601L63.7033 62.8278V69.7812C63.7033 70.715 64.4518 71.4722 65.3753 71.4722C66.2987 71.4722 67.0472 70.715 67.0472 69.7812V35.9943C67.0472 35.0619 67.7973 34.3033 68.7192 34.3033H102.883C103.807 34.3033 104.555 33.5461 104.555 32.6124C104.555 31.6786 103.807 30.9214 102.883 30.9214Z" fill="#083AA2"/>
<path d="M137.28 23.7209C136.321 22.7605 134.767 22.7602 133.808 23.7209L127.485 30.0594L125.191 27.7602C124.232 26.7995 122.677 26.7995 121.719 27.7602C120.76 28.7215 120.76 30.2794 121.719 31.2407L125.748 35.2797C126.228 35.7601 126.856 36.0005 127.485 36.0005C128.113 36.0005 128.741 35.7601 129.221 35.2797L137.28 27.2014C138.239 26.2404 138.239 24.6822 137.28 23.7209Z" fill="#083AA2"/>
<path fill-rule="evenodd" clip-rule="evenodd" d="M110 29.6513C110 18.816 118.815 10.0005 129.65 10.0005C140.486 10.0005 149.301 18.816 149.301 29.6513C149.301 40.4866 140.486 49.3021 129.65 49.3021C118.815 49.3021 110 40.4866 110 29.6513ZM114.677 29.6504C114.677 37.9061 121.394 44.6225 129.649 44.6225C137.905 44.6225 144.621 37.9061 144.621 29.6504C144.621 21.3948 137.905 14.6784 129.649 14.6784C121.394 14.6784 114.677 21.3948 114.677 29.6504Z" fill="#083AA2"/>
</svg>
