<svg width="174" height="172" viewBox="0 0 174 172" fill="none" xmlns="http://www.w3.org/2000/svg">
<path fill-rule="evenodd" clip-rule="evenodd" d="M21.4825 106.3C19.9035 94.2672 22.3988 81.9006 28.2759 71.2914C33.464 61.9261 45.2043 58.9684 52.1934 50.8617C60.7785 40.9039 61.2606 23.1613 73.6214 18.6955C85.6449 14.3514 97.9154 24.5819 109.413 30.1886C120.513 35.601 131.34 41.3248 139.339 50.7409C148.075 61.0254 157.766 72.7706 157.034 86.246C156.308 99.6259 144.253 109.038 135.617 119.269C128.129 128.14 119.706 135.409 110.072 141.88C98.8102 149.446 88.2301 160.137 74.6635 160.214C60.6617 160.294 47.4344 152.271 37.5924 142.293C28.1733 132.744 23.2279 119.602 21.4825 106.3Z" fill="#E2E9F6"/>
<path d="M135.224 141.046C135.799 141.046 136.301 140.537 136.301 139.956C136.301 139.375 135.799 138.867 135.224 138.867L45.5657 138.14C36.0902 138.14 28.3375 130.295 28.3375 120.706C28.3375 111.117 36.0902 103.271 45.5657 103.271L123.068 103.271C123.642 103.271 124.144 102.763 124.144 102.181C124.144 101.6 123.642 101.092 123.068 101.092L45.5657 101.092C34.8698 101.092 26.1839 109.882 26.1839 120.706C26.1839 131.53 34.8698 140.319 45.5657 140.319L135.224 141.046Z" fill="#00E1DC"/>
<path d="M36.4163 110.837C39.3764 110.837 41.776 108.437 41.776 105.477C41.776 102.517 39.3764 100.118 36.4163 100.118C33.4563 100.118 31.0566 102.517 31.0566 105.477C31.0566 108.437 33.4563 110.837 36.4163 110.837Z" fill="#6661F6"/>
<path d="M84.4275 23.5723H29.4611L23.5366 27.5219V64.7147L24.1949 66.6896L27.4863 69.6518L46.2473 70.3101L43.6142 78.5386H38.6771L37.3605 80.8426L38.6771 82.8174H74.2242L75.8699 81.83L74.2242 78.5386L68.6288 77.8803L66.3248 69.6518H85.7441L89.0355 66.0313V28.8385L87.7189 25.8762L84.4275 23.5723Z" fill="white"/>
<mask id="mask0" mask-type="alpha" maskUnits="userSpaceOnUse" x="23" y="23" width="68" height="63">
<path fill-rule="evenodd" clip-rule="evenodd" d="M23.5366 23.5723H90.6812V85.1545H23.5366V23.5723Z" fill="white"/>
</mask>
<g mask="url(#mask0)">
<path fill-rule="evenodd" clip-rule="evenodd" d="M68.1255 78.3555H46.0927L48.0455 71.9572H66.1727L68.1255 78.3555ZM75.2697 81.7559C75.2697 82.5275 74.6431 83.1555 73.8737 83.1555H40.3455C39.5755 83.1555 38.9496 82.5275 38.9496 81.7559C38.9496 80.984 39.5755 80.3565 40.3455 80.3565H73.8737C74.6431 80.3565 75.2697 80.984 75.2697 81.7559ZM84.2926 23.5723H40.0908C39.54 23.5723 39.0933 24.0202 39.0933 24.5723C39.0933 25.1244 39.54 25.5717 40.0908 25.5717H84.2926C86.7157 25.5717 88.6869 27.548 88.6869 29.9767V65.5534C88.6869 67.9828 86.7157 69.9585 84.2926 69.9585H29.9247C27.5021 69.9585 25.5309 67.9828 25.5309 65.5534V29.9767C25.5309 27.548 27.5021 25.5717 29.9247 25.5717H36.1017C36.6524 25.5717 37.099 25.1244 37.099 24.5723C37.099 24.0202 36.6524 23.5723 36.1017 23.5723H29.9247C26.4023 23.5723 23.5366 26.4453 23.5366 29.9767V65.5534C23.5366 69.0848 26.4023 71.9579 29.9247 71.9579H45.9598L44.0065 78.3567H40.3448C38.475 78.3567 36.9546 79.8816 36.9546 81.7557C36.9546 83.6301 38.475 85.1545 40.3448 85.1545H73.873C75.7423 85.1545 77.2633 83.6301 77.2633 81.7557C77.2633 79.8816 75.7423 78.3567 73.873 78.3567H70.2113L68.258 71.9579H84.2926C87.8156 71.9579 90.6812 69.0848 90.6812 65.5534V29.9767C90.6812 26.4453 87.8156 23.5723 84.2926 23.5723Z" fill="#083AA2"/>
</g>
<path fill-rule="evenodd" clip-rule="evenodd" d="M84.6574 56.2316C85.2098 56.2316 85.657 55.7831 85.657 55.2301V30.0483C85.657 29.4552 85.1759 28.9731 84.5839 28.9731H30.0891C29.4986 28.9731 29.0181 29.4552 29.0181 30.0483V62.6863C29.0181 63.2393 29.4652 63.6873 30.0172 63.6873H84.6574C85.2098 63.6873 85.657 63.2393 85.657 62.6863V59.2359C85.657 58.6829 85.2098 58.2348 84.6574 58.2348C84.1054 58.2348 83.6581 58.6829 83.6581 59.2359V61.6846H31.017V30.9758H83.6581V55.2301C83.6581 55.7836 84.1054 56.2316 84.6574 56.2316Z" fill="#083AA2"/>
<path fill-rule="evenodd" clip-rule="evenodd" d="M57.6435 65.9209C57.4432 65.6156 57.0603 65.4592 56.7033 65.5309C56.313 65.609 56.0098 65.9434 55.9721 66.341C55.8931 67.1701 56.9164 67.669 57.517 67.0915C57.8339 66.7862 57.8848 66.2873 57.6435 65.9209Z" fill="#083AA2"/>
<path d="M120.057 119.534H93.4789L92.0801 123.45V164.856L93.4789 167.934H120.057L121.456 164.856V123.45L120.057 119.534Z" fill="white"/>
<path d="M168.823 111.113H120.111C119.25 111.113 118.423 111.455 117.814 112.064C117.205 112.673 116.863 113.499 116.863 114.36V119.232H118.487C119.348 119.232 120.174 119.574 120.783 120.183C121.392 120.792 121.735 121.618 121.735 122.479V150.083H168.823C169.685 150.083 170.511 149.741 171.12 149.132C171.729 148.523 172.071 147.697 172.071 146.835V114.36C172.071 113.499 171.729 112.673 171.12 112.064C170.511 111.455 169.685 111.113 168.823 111.113ZM147.715 129.729V140.34C147.715 140.771 147.544 141.184 147.239 141.489C146.935 141.793 146.522 141.964 146.091 141.964H142.843C142.413 141.964 142 141.793 141.695 141.489C141.391 141.184 141.22 140.771 141.22 140.34V129.729C139.981 129.014 139.014 127.911 138.467 126.59C137.919 125.269 137.823 123.804 138.193 122.423C138.563 121.042 139.379 119.822 140.513 118.951C141.648 118.081 143.037 117.609 144.467 117.609C145.897 117.609 147.287 118.081 148.421 118.951C149.555 119.822 150.371 121.042 150.741 122.423C151.111 123.804 151.015 125.269 150.468 126.59C149.921 127.911 148.953 129.014 147.715 129.729Z" fill="#9693F4"/>
<path d="M107.121 141.963C108.914 141.963 110.368 140.509 110.368 138.716C110.368 136.922 108.914 135.468 107.121 135.468C105.327 135.468 103.873 136.922 103.873 138.716C103.873 140.509 105.327 141.963 107.121 141.963Z" fill="#9693F4"/>
<path d="M100.626 119.231H113.617L111.993 124.103H102.25L100.626 119.231Z" fill="#9693F4"/>
<path d="M113.617 119.231L111.993 124.103H102.25L100.626 119.231H113.617Z" fill="#9693F4"/>
<path d="M107.121 141.964C108.915 141.964 110.369 140.51 110.369 138.717C110.369 136.923 108.915 135.469 107.121 135.469C105.327 135.469 103.874 136.923 103.874 138.717C103.874 140.51 105.327 141.964 107.121 141.964Z" fill="#9693F4"/>
<path d="M168.621 109.489H166.998V91.6276C166.998 85.5986 164.603 79.8164 160.339 75.5532C156.076 71.2901 150.294 68.895 144.265 68.895C138.236 68.895 132.454 71.2901 128.191 75.5532C123.928 79.8164 121.533 85.5986 121.533 91.6276V109.489H119.909C118.617 109.491 117.379 110.004 116.466 110.918C115.553 111.831 115.039 113.069 115.038 114.36V117.608H95.5524C94.261 117.609 93.023 118.123 92.1098 119.036C91.1966 119.95 90.6829 121.188 90.6812 122.479V164.697C90.6829 165.988 91.1966 167.226 92.1098 168.139C93.023 169.052 94.261 169.566 95.5524 169.568H118.285C119.576 169.566 120.814 169.052 121.728 168.139C122.641 167.226 123.155 165.988 123.156 164.697V151.707H168.621C169.913 151.705 171.151 151.191 172.064 150.278C172.977 149.365 173.491 148.127 173.493 146.835V114.36C173.491 113.069 172.977 111.831 172.064 110.918C171.151 110.004 169.913 109.491 168.621 109.489ZM124.78 91.6276C124.78 86.4599 126.833 81.5037 130.487 77.8496C134.141 74.1954 139.097 72.1425 144.265 72.1425C149.433 72.1425 154.389 74.1954 158.043 77.8496C161.697 81.5037 163.75 86.4599 163.75 91.6276V109.489H160.503V91.6276C160.503 87.3211 158.792 83.1911 155.747 80.1459C152.702 77.1008 148.572 75.39 144.265 75.39C139.959 75.39 135.829 77.1008 132.783 80.1459C129.738 83.1911 128.028 87.3211 128.028 91.6276V109.489H124.78V91.6276ZM157.255 91.6276V109.489H131.275V91.6276C131.275 88.1824 132.644 84.8784 135.08 82.4423C137.516 80.0062 140.82 78.6376 144.265 78.6376C147.71 78.6376 151.014 80.0062 153.45 82.4423C155.887 84.8784 157.255 88.1824 157.255 91.6276ZM111.161 120.855L110.619 122.479H103.219L102.677 120.855H111.161ZM119.909 164.697C119.908 165.127 119.737 165.54 119.433 165.844C119.128 166.149 118.715 166.32 118.285 166.32H95.5524C95.122 166.32 94.7093 166.149 94.4049 165.844C94.1005 165.54 93.9293 165.127 93.9287 164.697V122.479C93.9293 122.049 94.1005 121.636 94.4049 121.331C94.7093 121.027 95.122 120.856 95.5524 120.855H99.2526L100.507 124.616C100.615 124.94 100.821 125.221 101.098 125.42C101.374 125.619 101.707 125.727 102.047 125.727H111.79C112.131 125.727 112.463 125.619 112.739 125.42C113.016 125.221 113.223 124.94 113.331 124.616L114.585 120.855H118.285C118.715 120.856 119.128 121.027 119.433 121.331C119.737 121.636 119.908 122.049 119.909 122.479V164.697ZM170.245 146.835C170.245 147.266 170.073 147.678 169.769 147.983C169.465 148.287 169.052 148.459 168.621 148.459H123.156V122.479C123.155 121.188 122.641 119.95 121.728 119.036C120.814 118.123 119.576 117.609 118.285 117.608V114.36C118.286 113.93 118.457 113.517 118.761 113.213C119.066 112.908 119.478 112.737 119.909 112.736H168.621C169.052 112.737 169.465 112.908 169.769 113.213C170.073 113.517 170.245 113.93 170.245 114.36V146.835Z" fill="#083AA2"/>
<path d="M144.828 116.003C143.716 115.922 142.599 116.073 141.549 116.446C140.498 116.819 139.536 117.406 138.725 118.17C137.857 118.98 137.178 119.97 136.735 121.071C136.292 122.171 136.095 123.356 136.159 124.54C136.223 125.725 136.546 126.882 137.105 127.928C137.664 128.975 138.445 129.886 139.394 130.598V140.341C139.395 141.202 139.738 142.027 140.347 142.636C140.955 143.245 141.781 143.587 142.642 143.588H145.889C146.75 143.587 147.576 143.245 148.185 142.636C148.793 142.027 149.136 141.202 149.137 140.341V130.6C150.462 129.607 151.451 128.232 151.972 126.659C152.493 125.087 152.521 123.394 152.052 121.805C151.584 120.217 150.64 118.81 149.349 117.773C148.058 116.736 146.48 116.118 144.828 116.003ZM146.7 128.324C146.453 128.466 146.249 128.671 146.106 128.918C145.964 129.165 145.889 129.444 145.889 129.729V140.341H142.642V129.729C142.642 129.444 142.567 129.165 142.425 128.918C142.282 128.671 142.078 128.466 141.831 128.324C141.092 127.894 140.477 127.279 140.05 126.538C139.622 125.798 139.396 124.958 139.394 124.103C139.394 122.811 139.907 121.573 140.82 120.659C141.734 119.746 142.972 119.232 144.264 119.232C144.378 119.232 144.493 119.236 144.609 119.243C145.778 119.327 146.877 119.828 147.707 120.656C148.536 121.484 149.04 122.583 149.125 123.752C149.193 124.665 149.002 125.579 148.573 126.388C148.144 127.197 147.494 127.868 146.7 128.324Z" fill="#083AA2"/>
<path d="M166.998 117.608C167.895 117.608 168.622 116.881 168.622 115.984C168.622 115.087 167.895 114.36 166.998 114.36C166.101 114.36 165.375 115.087 165.375 115.984C165.375 116.881 166.101 117.608 166.998 117.608Z" fill="#083AA2"/>
<path d="M166.998 146.836C167.895 146.836 168.622 146.109 168.622 145.212C168.622 144.315 167.895 143.588 166.998 143.588C166.101 143.588 165.375 144.315 165.375 145.212C165.375 146.109 166.101 146.836 166.998 146.836Z" fill="#083AA2"/>
<path d="M106.919 133.845C105.77 133.846 104.659 134.252 103.781 134.993C102.902 135.733 102.314 136.76 102.12 137.893C101.926 139.025 102.138 140.189 102.719 141.18C103.3 142.171 104.212 142.925 105.295 143.308V146.835C105.295 147.266 105.466 147.679 105.771 147.983C106.075 148.288 106.488 148.459 106.919 148.459C107.35 148.459 107.763 148.288 108.067 147.983C108.372 147.679 108.543 147.266 108.543 146.835V143.308C109.626 142.925 110.538 142.171 111.119 141.18C111.7 140.189 111.913 139.025 111.718 137.893C111.524 136.76 110.936 135.733 110.058 134.993C109.18 134.252 108.068 133.846 106.919 133.845ZM106.919 140.34C106.598 140.34 106.284 140.245 106.017 140.067C105.75 139.888 105.542 139.635 105.419 139.338C105.296 139.041 105.264 138.715 105.327 138.4C105.389 138.085 105.544 137.795 105.771 137.568C105.998 137.341 106.287 137.187 106.602 137.124C106.917 137.061 107.244 137.093 107.541 137.216C107.837 137.339 108.091 137.547 108.269 137.814C108.448 138.081 108.543 138.395 108.543 138.716C108.542 139.147 108.371 139.56 108.067 139.864C107.762 140.169 107.35 140.34 106.919 140.34Z" fill="#083AA2"/>
<path d="M101.668 47.1822C102.352 48.6336 103.753 49.5943 105.349 49.8268C107.127 50.1082 108.554 49.5151 109.599 48.527C116.253 52.4558 121.824 58.2406 125.227 65.2003C125.602 65.9837 126.579 66.343 127.362 65.9676C128.261 65.5256 128.62 64.5489 128.178 63.6501C124.418 56.2044 118.423 49.8182 111.157 45.6277C111.292 44.3957 111.087 42.9752 110.057 41.7237C109.093 40.5875 107.643 39.8089 106.065 39.8738C102.314 40.0392 99.9181 43.8844 101.668 47.1822ZM107.747 44.5189C107.983 45.46 107.35 46.3636 106.525 46.5325C105.584 46.7681 104.68 46.1358 104.511 45.3102C104.275 44.3691 104.908 43.4655 105.733 43.2966C106.674 43.061 107.602 43.6023 107.747 44.5189Z" fill="#00E1DC"/>
</svg>
