<svg width="163" height="149" viewBox="0 0 163 149" fill="none" xmlns="http://www.w3.org/2000/svg">
<path fill-rule="evenodd" clip-rule="evenodd" d="M109.145 1.66814C121.271 4.39849 135.645 8.41372 141.427 19.0942C147.611 30.4975 136.93 44.5508 139.259 57.239C141.186 67.518 151.786 74.5045 153.553 84.7835C155.48 96.1064 158.532 111.043 149.618 118.592C139.66 127.104 122.315 115.942 110.349 121.643C100.07 126.622 99.9899 143.647 89.2291 147.582C79.0304 151.356 67.1453 146.217 57.6694 140.916C48.6753 135.857 44.3388 125.98 37.4326 118.511C30.7673 111.364 23.1384 105.502 17.4367 97.5519C10.4502 87.835 -1.91668 78.4394 0.251548 66.7952C2.50008 54.9101 18.1595 50.654 27.7157 42.9447C34.9432 37.0825 42.813 32.6657 49.8798 26.6429C58.3921 19.4155 63.2907 8.17281 73.65 3.83636C84.7321 -0.741006 97.5005 -0.901614 109.145 1.66814Z" fill="#E2E9F6"/>
<path d="M21.9437 50.7208C21.2008 50.7208 20.5508 51.333 20.5508 52.0325C20.5508 52.7321 21.2008 53.3443 21.9437 53.3443L137.927 54.2188C150.185 54.2188 160.214 63.6632 160.214 75.2063C160.214 86.7495 150.185 96.1939 137.927 96.1939H69.495C68.7521 96.1939 68.102 96.8061 68.102 97.5057C68.102 98.2052 68.7521 98.8174 69.495 98.8174H137.927C151.763 98.8174 163 88.2361 163 75.2063C163 62.1765 151.763 51.5953 137.927 51.5953L21.9437 50.7208Z" fill="#00E1DC"/>
<path d="M61.8939 104.084C65.7056 104.084 68.8713 100.983 68.8713 97.1063C68.8713 93.23 65.7702 90.1289 61.8939 90.1289C58.0822 90.1289 54.9165 93.23 54.9165 97.1063C54.9165 100.983 58.0822 104.084 61.8939 104.084ZM61.8939 92.1317C64.6073 92.1317 66.8685 94.3929 66.8685 97.1063C66.8685 99.8197 64.6073 102.081 61.8939 102.081C59.1805 102.081 56.9193 99.8197 56.9193 97.1063C56.9193 94.3929 59.1805 92.1317 61.8939 92.1317Z" fill="#083AA2"/>
<path d="M61.8937 104.278C57.9528 104.278 54.7871 101.047 54.7871 97.171C54.7871 93.2947 58.0174 90.0645 61.8937 90.0645C65.77 90.0645 69.0003 93.2947 69.0003 97.171C69.0003 101.047 65.8346 104.278 61.8937 104.278ZM61.8937 90.3229C58.1466 90.3229 55.1101 93.3593 55.1101 97.1064C55.1101 100.854 58.1466 103.89 61.8937 103.89C65.6408 103.89 68.6773 100.854 68.6773 97.1064C68.6773 93.3593 65.7054 90.3229 61.8937 90.3229ZM61.8937 102.275C59.0511 102.275 56.7253 99.9491 56.7253 97.1064C56.7253 94.2638 59.0511 91.938 61.8937 91.938C64.7363 91.938 67.0621 94.2638 67.0621 97.1064C67.0621 99.9491 64.7363 102.275 61.8937 102.275ZM61.8937 92.3256C59.2449 92.3256 57.0483 94.4576 57.0483 97.171C57.0483 99.8845 59.1803 102.016 61.8937 102.016C64.5425 102.016 66.7391 99.8845 66.7391 97.171C66.7391 94.4576 64.6071 92.3256 61.8937 92.3256Z" fill="#083AA2"/>
<path d="M29.0749 18.1455H8.74316L9.39903 73.4566H62.5239V46.129H63.8356V41.7565H53.5604V28.8579L54.6535 28.4207V24.2669H29.0749V22.0807V18.1455Z" fill="#9693F4"/>
<mask id="mask0" mask-type="alpha" maskUnits="userSpaceOnUse" x="7" y="17" width="58" height="58">
<path fill-rule="evenodd" clip-rule="evenodd" d="M7.43164 17.6021H64.6405V74.767H7.43164V17.6021Z" fill="white"/>
</mask>
<g mask="url(#mask0)">
<path fill-rule="evenodd" clip-rule="evenodd" d="M61.283 73.0971H57.9734V60.1275C58.6386 60.002 59.1443 59.42 59.1443 58.722V56.3355C59.1443 55.5467 58.499 54.9048 57.7058 54.9048H32.8236C32.0303 54.9048 31.3851 55.5467 31.3851 56.3355V58.722C31.3851 59.42 31.8901 60.0023 32.5563 60.1275V73.0971H29.2458V47.682H61.283V73.0971ZM33.0628 58.4815H57.4635V56.5741H33.0628V58.4815ZM56.295 72.8668H50.0609V60.1726H56.2941V72.8668H56.295ZM42.1469 72.8676H48.3808V60.1737H42.1469V72.8676ZM34.233 72.8676H40.4671V60.1737H34.233V72.8676ZM9.11125 21.9405H28.2635V19.2757H9.11125V21.9405ZM23.7963 39.3487H27.5669V37.4781H23.7963V39.3487ZM21.0299 42.8921H24.884V41.0217H21.0299V42.8921ZM34.233 37.262H52.1818V33.5612H34.233V37.262ZM29.2458 30.1723H52.3377V31.8913H33.9551C33.1837 31.8913 32.5563 32.516 32.5563 33.2832V37.5408C32.5563 38.3083 33.1837 38.9324 33.9551 38.9324H52.3377V41.6812H29.2458V30.1723ZM29.2458 25.835H53.7894V28.4995H53.3699C53.3082 28.4849 53.2437 28.4763 53.1775 28.4763H29.2458V25.835ZM63.2413 41.6808H59.3177C58.8538 41.6808 58.4782 42.0548 58.4782 42.5163C58.4782 42.9775 58.8538 43.3511 59.3177 43.3511H62.9618V46.01L29.2453 45.9877V43.4268C29.2453 43.4268 53.418 43.3992 53.5236 43.3511H55.4565C55.9207 43.3511 56.2963 42.9775 56.2963 42.5163C56.2963 42.0548 55.9207 41.6811 55.4565 41.6811H54.0165V30.1723H54.0687C54.8404 30.1723 55.4681 29.5464 55.4681 28.7774V25.555C55.4681 24.786 54.8404 24.1601 54.0687 24.1601H29.2453V23.4229C29.6611 23.1813 29.9427 22.7326 29.9427 22.2189V18.9964C29.9427 18.2266 29.3151 17.6016 28.5433 17.6016H8.83079C8.05962 17.6016 7.43164 18.2266 7.43164 18.9964V22.2189C7.43164 22.7326 7.71266 23.181 8.12913 23.4229V41.1095C8.12913 41.5713 8.50472 41.9462 8.96832 41.9462C9.43251 41.9462 9.80811 41.5713 9.80811 41.1095V23.6137H27.5666V35.8037H23.5162C22.7444 35.8037 22.1167 36.4287 22.1167 37.1983V39.3476H20.7498C19.9783 39.3476 19.3504 39.9732 19.3504 40.7415V43.1701C19.3504 43.939 19.9783 44.565 20.7498 44.565H25.163C25.9347 44.565 26.5621 43.939 26.5621 43.1701V41.0208H27.5666V73.093H9.80811V44.9849C9.80811 44.5228 9.43251 44.148 8.96832 44.148C8.50472 44.148 8.12913 44.5228 8.12913 44.9849V73.9296C8.12913 74.3917 8.50472 74.7665 8.96832 74.7665H62.122C62.5862 74.7665 62.9618 74.3929 62.9618 73.9311V47.6809H63.2413C64.0128 47.6809 64.6408 47.0564 64.6408 46.289V43.073C64.6408 42.3056 64.0128 41.6808 63.2413 41.6808Z" fill="#083AA2"/>
</g>
<mask id="mask1" mask-type="alpha" maskUnits="userSpaceOnUse" x="7" y="17" width="58" height="58">
<path fill-rule="evenodd" clip-rule="evenodd" d="M7.43164 74.7684H64.7103V17.4897H7.43164V74.7684Z" fill="white"/>
</mask>
<g mask="url(#mask1)">
<path fill-rule="evenodd" clip-rule="evenodd" d="M13.4329 29.7967H17.1711V27.9157H13.4329V29.7967ZM17.442 26.2339H13.161C12.4126 26.2339 11.8037 26.8631 11.8037 27.6367V30.078C11.8037 30.8516 12.4126 31.4808 13.161 31.4808H17.442C18.1907 31.4808 18.7996 30.8516 18.7996 30.078V27.6367C18.7996 26.8631 18.1907 26.2339 17.442 26.2339Z" fill="#083AA2"/>
<path fill-rule="evenodd" clip-rule="evenodd" d="M21.5438 51.2225H17.8054V49.3418H21.5441V51.2225H21.5438ZM21.8166 47.6582H17.5353C16.7869 47.6582 16.1777 48.2877 16.1777 49.061V51.5026C16.1777 52.2756 16.7869 52.9051 17.5353 52.9051H21.8166C22.5653 52.9051 23.1736 52.2756 23.1736 51.5026V49.061C23.1736 48.2877 22.5644 47.6582 21.8166 47.6582Z" fill="#083AA2"/>
<path fill-rule="evenodd" clip-rule="evenodd" d="M13.4329 57.3443H17.1717V55.4636H13.4329V57.3443ZM11.8037 57.6238C11.8037 58.3975 12.4129 59.0267 13.1613 59.0267H17.4426C18.1913 59.0267 18.7996 58.3975 18.7996 57.6238V55.182C18.7996 54.4087 18.1913 53.7798 17.4426 53.7798H13.1613C12.4129 53.7798 11.8037 54.4087 11.8037 55.182V57.6238Z" fill="#083AA2"/>
<path fill-rule="evenodd" clip-rule="evenodd" d="M19.9922 69.5873H23.7308V67.7066H19.9922V69.5873ZM18.3633 67.426V69.8675C18.3633 70.6408 18.9719 71.2703 19.7203 71.2703H24.0021C24.7505 71.2703 25.3591 70.6408 25.3591 69.8675V67.426C25.3591 66.6523 24.7505 66.0234 24.0021 66.0234H19.7203C18.9719 66.0234 18.3633 66.6523 18.3633 67.426Z" fill="#083AA2"/>
</g>
<path fill-rule="evenodd" clip-rule="evenodd" d="M91.3296 93.7176V133.585H128.556V81.2632H102.286V93.7176H91.3296Z" fill="white"/>
<path d="M96.8381 101.434C97.4434 101.434 97.9277 101.918 97.9277 102.523C97.9277 103.128 97.4434 103.613 96.8381 103.613C96.2328 103.613 95.7485 103.128 95.7485 102.523C95.7485 101.918 96.2328 101.434 96.8381 101.434Z" fill="#083AA2"/>
<path d="M101.135 101.433H123.532C124.137 101.433 124.622 101.917 124.622 102.523C124.622 103.128 124.137 103.612 123.532 103.612H101.135C100.53 103.612 100.046 103.128 100.046 102.523C100.046 101.917 100.53 101.433 101.135 101.433Z" fill="#083AA2"/>
<path d="M96.8366 106.396H123.531C124.136 106.396 124.62 106.88 124.62 107.486C124.62 108.091 124.136 108.575 123.531 108.575H96.8366C96.2313 108.575 95.7471 108.091 95.7471 107.486C95.7471 106.88 96.2313 106.396 96.8366 106.396Z" fill="#083AA2"/>
<path d="M96.8366 111.42H123.531C124.136 111.42 124.62 111.905 124.62 112.51C124.62 113.115 124.136 113.6 123.531 113.6H96.8366C96.2313 113.6 95.7471 113.115 95.7471 112.51C95.7471 111.905 96.2313 111.42 96.8366 111.42Z" fill="#083AA2"/>
<path d="M96.8366 116.324H123.531C124.136 116.324 124.62 116.808 124.62 117.414C124.62 118.019 124.136 118.503 123.531 118.503H96.8366C96.2313 118.503 95.7471 118.019 95.7471 117.414C95.7471 116.808 96.2313 116.324 96.8366 116.324Z" fill="#083AA2"/>
<path d="M123.531 123.467H96.8366C96.2313 123.467 95.7471 122.982 95.7471 122.377C95.7471 121.772 96.2313 121.288 96.8366 121.288H123.531C124.136 121.288 124.62 121.772 124.62 122.377C124.62 122.982 124.136 123.467 123.531 123.467Z" fill="#083AA2"/>
<path d="M130.734 121.469V97.6436V94.8685V91.8903V88.4382V82.6172C130.734 81.3988 129.887 80.4512 128.797 80.4512H128.676H126.497H122.079H119.899H117.72H101.861C101.316 80.4512 100.832 80.6542 100.469 81.0604L90.1786 92.5671C89.8154 92.9733 89.6338 93.5147 89.6338 94.1239V133.856C89.6338 135.075 90.4812 136.022 91.5708 136.022H128.737C129.827 136.022 130.674 135.075 130.674 133.856V121.469H130.734ZM100.469 84.5124V92.4994H93.3262L100.469 84.5124ZM128.555 133.585H91.8129V94.9362H100.65C101.74 94.9362 102.587 93.9886 102.587 92.7702V82.8202H128.555V133.585Z" fill="#083AA2"/>
<path d="M31.5 103C34.5376 103 37 100.538 37 97.5C37 94.4624 34.5376 92 31.5 92C28.4624 92 26 94.4624 26 97.5C26 100.538 28.4624 103 31.5 103Z" fill="#9693F4"/>
<path d="M117.5 61C121.642 61 125 57.6421 125 53.5C125 49.3579 121.642 46 117.5 46C113.358 46 110 49.3579 110 53.5C110 57.6421 113.358 61 117.5 61Z" fill="#6661F6"/>
<path d="M31.5933 104.084C35.3404 104.343 38.506 101.629 38.9583 98.1407H49.5536L48.9721 98.7221C48.5845 99.1097 48.5845 99.7558 48.9721 100.143C49.3597 100.531 50.0058 100.531 50.3934 100.143L52.6546 97.8822C52.8484 97.6884 52.9776 97.43 52.9776 97.1716C52.9776 96.9132 52.8484 96.6547 52.6546 96.4609L50.3934 94.1997C50.0058 93.8121 49.3597 93.8121 48.9721 94.1997C48.5845 94.5874 48.5845 95.2334 48.9721 95.621L49.5536 96.2025H39.0229C38.506 92.843 35.6634 90.2588 32.1101 90.2588C28.1692 90.2588 25.0035 93.5537 25.1327 97.4946C25.2619 100.919 28.1046 103.826 31.5933 104.084ZM32.1101 92.1324C34.8235 92.1324 37.0847 94.3935 37.0847 97.107C37.0847 99.8204 34.8235 102.082 32.1101 102.082C29.3967 102.082 27.1355 99.8204 27.1355 97.107C27.1355 94.3935 29.3321 92.1324 32.1101 92.1324Z" fill="#083AA2"/>
<path d="M32.1106 104.278C31.9168 104.278 31.7876 104.278 31.5938 104.278C28.0405 104.019 25.1333 101.048 25.004 97.4296C24.9394 95.4915 25.6501 93.6179 27.0068 92.1966C28.3635 90.7753 30.1725 90 32.1752 90C35.6639 90 38.6358 92.5842 39.2172 95.9437H49.2957L48.9726 95.6207C48.7788 95.4268 48.6496 95.1038 48.6496 94.7808C48.6496 94.4578 48.7788 94.1994 48.9726 93.9409C49.4249 93.4887 50.1355 93.4887 50.5878 93.9409L52.849 96.2021C53.0428 96.3959 53.172 96.719 53.172 97.042C53.172 97.365 53.0428 97.6234 52.849 97.8819L50.5878 100.143C50.1355 100.595 49.4249 100.595 48.9726 100.143C48.7788 99.9492 48.6496 99.6262 48.6496 99.3032C48.6496 98.9801 48.7788 98.7217 48.9726 98.4633L49.2957 98.1403H39.1526C38.5712 101.694 35.5347 104.278 32.1106 104.278ZM31.5938 103.89C35.1471 104.149 38.3128 101.564 38.8296 98.0757V97.9465H50.0063L49.1665 98.7863C49.0372 98.9155 48.908 99.174 48.908 99.3678C48.908 99.5616 48.9726 99.82 49.1665 99.9492C49.4895 100.272 50.0063 100.272 50.3294 99.9492L52.5905 97.688C52.7198 97.5588 52.849 97.3004 52.849 97.1066C52.849 96.9128 52.7844 96.6544 52.5905 96.5251L50.3294 94.264C50.0063 93.9409 49.4895 93.9409 49.1665 94.264C49.0372 94.3932 48.908 94.6516 48.908 94.8454C48.908 95.0392 48.9726 95.2976 49.1665 95.4268L50.0063 96.2667H38.8296V96.1375C38.3774 92.778 35.4701 90.323 32.1106 90.323C30.2371 90.323 28.4927 91.0983 27.2006 92.3904C25.9085 93.7471 25.2625 95.4915 25.3271 97.365C25.4563 100.789 28.2343 103.696 31.5938 103.89ZM32.1106 102.275C29.268 102.275 26.9422 99.9492 26.9422 97.1066C26.9422 94.264 29.268 91.9382 32.1106 91.9382C34.9533 91.9382 37.2791 94.264 37.2791 97.1066C37.2791 99.9492 34.9533 102.275 32.1106 102.275ZM32.1106 92.3258C29.4618 92.3258 27.2652 94.4578 27.2652 97.1712C27.2652 99.8846 29.3972 102.017 32.1106 102.017C34.7595 102.017 36.956 99.8846 36.956 97.1712C36.956 94.4578 34.7595 92.3258 32.1106 92.3258Z" fill="#083AA2"/>
</svg>
